<?xml version="1.0" encoding="utf-8"?>
<!-- Generator: Adobe Illustrator 19.0.0, SVG Export Plug-In . SVG Version: 6.00 Build 0)  -->
<svg version="1.2" baseProfile="tiny" id="Layer_1" xmlns="http://www.w3.org/2000/svg" xmlns:xlink="http://www.w3.org/1999/xlink"
	 x="0px" y="0px" viewBox="165.5 382.5 28 28" xml:space="preserve">
<path fill="#D3A88A" d="M189.3,386.7c-2.6-2.6-6.1-4-9.8-4s-7.2,1.4-9.8,4c-2.6,2.6-4,6.1-4,9.8s1.4,7.2,4,9.8c2.6,2.6,6.1,4,9.8,4
	c1.9,0,3.7-0.4,5.4-1.1l-0.7-1.6c-1.5,0.6-3.1,1-4.7,1c-6.7,0-12.1-5.4-12.1-12.1s5.4-12.1,12.1-12.1s12.1,5.4,12.1,12.1
	c0,2.9-1.8,4.3-3.5,4.3c-1.7,0-3.5-1.3-3.5-4.3c0-2.9-2.3-5.2-5.2-5.2s-5.2,2.3-5.2,5.2s2.3,5.2,5.2,5.2c1.7,0,3.2-0.8,4.1-2.1
	c0.2,0.5,0.5,0.9,0.9,1.3c0.9,1,2.2,1.5,3.6,1.5c1.4,0,2.6-0.5,3.6-1.5c1-1.1,1.6-2.6,1.6-4.4C193.3,392.8,191.9,389.3,189.3,386.7z
	 M179.5,400c-1.9,0-3.5-1.6-3.5-3.5s1.6-3.5,3.5-3.5s3.5,1.6,3.5,3.5S181.4,400,179.5,400z"/>
</svg>
