<?xml version="1.0" encoding="utf-8"?>
<!-- Generator: Adobe Illustrator 19.0.0, SVG Export Plug-In . SVG Version: 6.00 Build 0)  -->
<svg version="1.2" baseProfile="tiny" id="Capa_1" xmlns="http://www.w3.org/2000/svg" xmlns:xlink="http://www.w3.org/1999/xlink"
	 x="0px" y="0px" viewBox="40.4 -8.2 17.2 30.3" xml:space="preserve">
<g>
	<path fill="#D3A88A" d="M56.4-6.9c-0.6-0.6-1.5-1-2.4-1H44c-1.9,0-3.4,1.5-3.4,3.4v22.9c0,1.9,1.5,3.4,3.4,3.4H54
		c1.9,0,3.4-1.5,3.4-3.4V-4.5C57.4-5.4,57-6.2,56.4-6.9z M54,20.3H44c-1,0-1.8-0.8-1.8-1.8l0-22.9c0-1,0.8-1.8,1.8-1.8H54
		c1,0,1.8,0.8,1.8,1.8v22.9C55.8,19.4,55,20.3,54,20.3z"/>
	<path fill="#D3A88A" d="M47.5-5.1h3c0.3,0,0.5-0.2,0.5-0.5S50.8-6,50.5-6h-3C47.2-6,47-5.8,47-5.5C47-5.3,47.2-5.1,47.5-5.1z"/>
	<path fill="#D3A88A" d="M54.5-4.8H43.5c-0.3,0-0.5,0.2-0.5,0.5V16c0,0.3,0.2,0.5,0.5,0.5h4.9c-0.7,0.3-1.3,0.9-1.3,1.8
		c0,1,0.8,1.9,1.9,1.9c1,0,1.9-0.8,1.9-1.9c0-0.8-0.5-1.5-1.3-1.8h4.9c0.3,0,0.5-0.2,0.5-0.5V-4.3C55-4.5,54.8-4.8,54.5-4.8z
		 M49.8,18.3c0,0.4-0.4,0.8-0.8,0.8s-0.8-0.4-0.8-0.8s0.4-0.8,0.8-0.8S49.8,17.9,49.8,18.3z M53.9,15.5h-9.9V-3.7h9.9l0,18.6
		C53.9,15.2,53.9,15.4,53.9,15.5z"/>
</g>
</svg>
