<?xml version="1.0" encoding="utf-8"?>
<!-- Generator: Adobe Illustrator 19.0.0, SVG Export Plug-In . SVG Version: 6.00 Build 0)  -->
<svg version="1.2" baseProfile="tiny" id="Layer_1" xmlns="http://www.w3.org/2000/svg" xmlns:xlink="http://www.w3.org/1999/xlink"
	 x="0px" y="0px" viewBox="445.7 -6.3 26.6 26.6" xml:space="preserve">
<g>
	<g>
		<g>
			<path fill="#D3A88A" d="M470,10.9c0.5-1.3,0.8-2.7,0.8-4.2c0-3.1-1.2-6.1-3.5-8.3c-2.2-2.2-5.2-3.5-8.3-3.5
				c-1.4,0-2.8,0.3-4.1,0.7c-1-1.1-2.3-1.7-3.8-1.7c-2.8,0-5.1,2.3-5.1,5.1c0,1.5,0.7,2.9,1.8,3.9c-0.4,1.2-0.6,2.4-0.6,3.7
				c0,3.1,1.2,6.1,3.5,8.3c2.2,2.2,5.2,3.5,8.3,3.5c1.3,0,2.5-0.2,3.7-0.6c1,1.3,2.5,2.1,4.1,2.1c2.8,0,5.1-2.3,5.1-5.1
				C472,13.3,471.3,11.8,470,10.9z M466.9,18.9c-1.4,0-2.7-0.8-3.4-2c-0.1-0.2-0.3-0.3-0.5-0.3c-0.1,0-0.1,0-0.2,0
				c-1.2,0.5-2.5,0.7-3.8,0.7c-2.9,0-5.5-1.1-7.6-3.1c-2-2-3.1-4.7-3.1-7.6c0-1.3,0.2-2.5,0.7-3.7c0.1-0.2,0-0.5-0.2-0.6
				c-1.1-0.8-1.7-2-1.7-3.3c0-2.2,1.8-4,4-4c1.2,0,2.4,0.6,3.2,1.6c0.2,0.2,0.4,0.3,0.7,0.2c1.3-0.5,2.7-0.8,4.1-0.8
				c2.9,0,5.5,1.1,7.6,3.1c2,2,3.1,4.7,3.1,7.6c0,1.4-0.3,2.8-0.8,4.2c-0.1,0.2,0,0.5,0.2,0.7c1.2,0.7,1.8,2,1.8,3.4
				C470.9,17.1,469.1,18.9,466.9,18.9z"/>
			<path fill="#D3A88A" d="M459.8,5c-3.8-0.7-4.1-1.9-3.2-2.7c0.9-0.8,3.7-1.2,4.4,0.2c0.7,1.4,1.3,1.9,2.3,1.7
				c1-0.2,1.1-1.6,0.7-2.4c-0.3-0.7-1.8-2.3-4.8-2.3c-3,0-6.1,1.1-6.1,3.8s2.8,3.9,5.6,4.3c2.7,0.4,3.4,1.6,3,2.4
				c-0.4,0.8-1.5,1.7-3.3,1.5c-1.8-0.2-2.6-1.7-2.8-2.4c-0.2-0.7-1.1-0.8-1.5-0.8c-0.4,0-1.6,0.5-1.1,2.3c0.6,1.7,2.4,3.1,6.1,3.1
				c3.7,0,5.8-2.3,5.8-4.4C465.1,7.1,463.6,5.7,459.8,5z"/>
		</g>
	</g>
</g>
</svg>
