<svg xmlns="http://www.w3.org/2000/svg" xmlns:xlink="http://www.w3.org/1999/xlink" height="116" viewBox="0 0 32 116" width="32"><svg height="24" viewBox="0 0 24 24" width="24" x="4" y="4"><path fill="#4D5E92" d="M10.3,18.4H13V12h1.8L15,9.8h-2l0-1.1c0-0.6,0.1-0.9,0.9-0.9H15V5.6h-1.8c-2.1,0-2.9,1.1-2.9,2.9v1.3H9V12	h1.3V18.4z M12,23.8C5.5,23.8,0.2,18.5,0.2,12C0.2,5.5,5.5,0.2,12,0.2S23.8,5.5,23.8,12C23.8,18.5,18.5,23.8,12,23.8z"/></svg><svg height="24" viewBox="0 0 24 24" width="24" x="4" y="32"><circle fill="#E39444" cx="12" cy="12" r="11.6"/><g fill="#FFF"><path d="M10.9,14.4c-0.4-0.1-0.8-0.2-1.2-0.4c-0.1-0.1-0.3-0.1-0.4-0.2c-0.4-0.2-0.5-0.7-0.3-1.1 c0.2-0.4,0.7-0.5,1.1-0.3c0.4,0.2,0.8,0.4,1.2,0.5c0.9,0.2,1.7,0,2.4-0.4c0.2-0.1,0.3-0.2,0.5-0.2c0.4,0,0.7,0.2,0.8,0.6 c0.1,0.3,0,0.7-0.3,0.9c-0.5,0.3-1,0.5-1.5,0.6c0,0,0,0-0.1,0c0,0,0,0,0.1,0.1c0.5,0.5,1,1,1.4,1.4c0.3,0.3,0.3,0.7,0.2,1 c-0.3,0.5-0.9,0.5-1.3,0.2c-0.5-0.5-1-1-1.4-1.4c0,0,0,0-0.1-0.1c0,0,0,0.1,0,0.1c-0.5,0.5-1,1-1.4,1.4c-0.3,0.3-0.8,0.3-1.1,0 c-0.3-0.3-0.3-0.8,0-1.1c0,0,0.1-0.1,0.1-0.1C9.9,15.4,10.4,14.9,10.9,14.4C10.9,14.4,10.9,14.4,10.9,14.4z"/><path d="M12,6.7c1.5,0,2.7,1.2,2.7,2.7c0,1.5-1.2,2.7-2.7,2.7c-1.5,0-2.7-1.2-2.7-2.7C9.3,7.9,10.5,6.7,12,6.7z M13.1,9.4c0-0.6-0.5-1.1-1.1-1.1c-0.6,0-1.1,0.5-1.1,1.1c0,0.6,0.5,1.1,1.1,1.1C12.6,10.6,13.1,10.1,13.1,9.4z"/></g></svg><svg height="24" viewBox="0 0 24 24" width="24" x="4" y="60"><path fill="#393A39" d="M18.7,15.3c-1.3,0-2.5,0.6-3.3,1.6l-6.3-3.5c0.1-0.4,0.2-0.9,0.2-1.4c0-0.5-0.1-0.9-0.2-1.4l6.3-3.5 c0.8,1,1.9,1.6,3.3,1.6c2.3,0,4.1-1.8,4.1-4.1S21,0.5,18.7,0.5s-4.1,1.8-4.1,4.1c0,0.5,0.1,0.9,0.2,1.4L8.5,9.5 c-0.8-1-1.9-1.6-3.3-1.6C3,7.9,1.1,9.7,1.1,12s1.9,4.1,4.1,4.1c1.3,0,2.5-0.6,3.3-1.6l6.3,3.5c-0.2,0.4-0.2,0.9-0.2,1.4 c0,2.3,1.8,4.1,4.1,4.1s4.1-1.8,4.1-4.1S21,15.3,18.7,15.3z M18.7,1.8c1.6,0,2.8,1.3,2.8,2.8s-1.3,2.8-2.8,2.8 c-1.6,0-2.8-1.3-2.8-2.8S17.2,1.8,18.7,1.8z M5.3,14.8c-1.6,0-2.8-1.3-2.8-2.8s1.3-2.8,2.8-2.8s2.8,1.3,2.8,2.8S6.8,14.8,5.3,14.8z M18.7,22.2c-1.6,0-2.8-1.3-2.8-2.8c0-1.6,1.3-2.8,2.8-2.8c1.6,0,2.8,1.3,2.8,2.8C21.6,21,20.3,22.2,18.7,22.2z"/></svg><svg height="24" viewBox="0 0 24 24" width="24" x="4" y="88"><circle fill="#FFF" cx="12" cy="12" r="11.8"/><path fill="#4D729D" d="M12,23.8C5.5,23.8,0.3,18.5,0.3,12S5.5,0.3,12,0.3S23.8,5.5,23.8,12S18.5,23.8,12,23.8z M19,8.6	c-0.2-0.2-1-0.2-1.8-0.2c-0.8,0-1.6,0-1.8,0.1c-0.2,0.1-0.6,1-1.1,2c-0.6,1.1-1.3,2.2-1.7,2.2c-0.6,0-0.4-1.8-0.4-3.2	c0-0.9-0.1-1.2-0.2-1.2c-0.3-0.2-1.2-0.4-1.2-0.4S8.2,7.6,7.8,8.8c0.5,0.1,1.3-0.1,1,3.3c0,0.2-0.4,1.6-1.6-0.3	c-0.3-0.5-1.4-3.3-1.8-3.3c-1.3,0-2.6-0.1-3.1,0.2c-0.4,0.2,0.6,2.2,2.2,4.8c1.4,2.1,2.8,3.8,5.3,4.2c0.5,0,1.7,0.1,2.1-0.1	c0.3-0.1-0.1-2,0.8-2.2c0.4-0.1,1.9,1.9,2.5,2.2c0.3,0.1,1.1,0.2,1.9,0.2c0.9,0,1.8,0.1,1.9-0.5c0.2-1.3-2.6-2.9-2.7-3.7	c-0.1-0.6,1-1.6,1.6-2.4C18.7,10.1,19.4,8.9,19,8.6z"/></svg></svg>